<svg width="98" height="48" viewBox="0 0 98 48" fill="none" xmlns="http://www.w3.org/2000/svg">
<path d="M55.0851 37.0336V47.5552H49.641V40.2656L43.4371 40.9856C42.0744 41.1424 41.4749 41.5872 41.4749 42.4064C41.4749 43.6064 42.6131 44.112 45.053 44.112C46.5406 44.112 48.1886 43.8912 49.6442 43.5104L46.826 47.4912C45.6878 47.744 44.5785 47.8688 43.4082 47.8688C38.4707 47.8688 35.6525 45.9104 35.6525 42.4352C35.6525 39.3696 37.868 37.76 42.9016 37.1904L49.5512 36.4192C49.1921 34.4896 47.7333 33.6512 44.8317 33.6512C42.1097 33.6512 39.1023 34.3456 36.4124 35.6416L37.2684 30.9344C39.7692 29.8912 42.6195 29.3536 45.4986 29.3536C51.8308 29.3536 55.0915 31.9776 55.0915 37.0304L55.0851 37.0336ZM6.11092 23.8592L0.160278 47.5552H6.11092L9.06379 35.648L14.184 41.7728H20.388L25.5082 35.648L28.4611 47.5552H34.4117L28.4611 23.856L17.2844 37.104L6.10771 23.856L6.11092 23.8592ZM28.4611 0.160034L17.2844 13.408L6.11092 0.160034L0.160278 23.8592H6.11092L9.06379 11.952L14.184 18.0768H20.388L25.5082 11.952L28.4611 23.8592H34.4117L28.4611 0.160034ZM69.3942 36.8128L64.5817 36.1184C63.3794 35.9296 62.9049 35.5488 62.9049 34.8864C62.9049 33.8112 64.0751 33.3376 66.483 33.3376C69.2691 33.3376 71.7699 33.9072 74.399 35.1392L73.7353 30.496C71.6128 29.7376 69.1761 29.36 66.6433 29.36C60.7247 29.36 57.4929 31.4144 57.4929 35.1104C57.4929 37.9872 59.2659 39.5968 63.0331 40.1664L67.9097 40.8928C69.1441 41.0816 69.6507 41.5552 69.6507 42.3136C69.6507 43.3888 68.5125 43.8944 66.2008 43.8944C63.1614 43.8944 59.8686 43.168 57.1787 41.872L57.7173 46.5152C60.029 47.3696 63.0363 47.8752 65.8546 47.8752C71.9334 47.8752 75.0979 45.7568 75.0979 41.9968C75.0979 38.9952 73.3249 37.3824 69.4006 36.816L69.3942 36.8128ZM77.214 25.9744V47.5552H82.6581V25.9744H77.214ZM89.0191 37.856L96.5888 29.6704H89.8142L82.6581 38.1376L90.2887 47.552H97.1595L89.0191 37.8528V37.856ZM76.4541 18.7392C76.4541 22.2144 79.2723 24.1728 84.2098 24.1728C85.3801 24.1728 86.4894 24.0448 87.6276 23.7952L90.4458 19.8144C88.9902 20.192 87.3423 20.416 85.8546 20.416C83.4179 20.416 82.2765 19.9104 82.2765 18.7104C82.2765 17.888 82.8793 17.4464 84.2387 17.2896L90.4426 16.5696V23.8592H95.8867V13.3376C95.8867 8.28163 92.626 5.66083 86.2938 5.66083C83.4115 5.66083 80.5644 6.19843 78.0636 7.24163L77.2076 11.9488C79.8975 10.6528 82.9049 9.95843 85.627 9.95843C88.5285 9.95843 89.9873 10.7968 90.3464 12.7264L83.6968 13.4976C78.6632 14.0672 76.4477 15.6768 76.4477 18.7424L76.4541 18.7392ZM61.2281 17.6032C61.2281 21.9648 63.7609 24.176 68.7625 24.176C70.7568 24.176 72.4047 23.8592 73.9854 23.1328L74.6811 18.3616C73.1614 19.2768 71.6096 19.7504 70.0578 19.7504C67.7141 19.7504 66.6689 18.8032 66.6689 16.6848V10.3648H74.9312V5.97443H66.6689V2.24643L56.3162 7.71203V10.3648H61.2216V17.6L61.2281 17.6032ZM55.877 15.6128V16.688H41.1639C41.8276 18.8768 43.7994 19.8784 47.3005 19.8784C50.0866 19.8784 52.6836 19.3088 54.9921 18.2048L54.3284 22.8192C52.2059 23.7024 49.5159 24.1792 46.7619 24.1792C39.4486 24.1792 35.4601 20.9568 35.4601 14.9856C35.4601 9.01443 39.5127 5.66403 45.7808 5.66403C52.0488 5.66403 55.8802 9.29923 55.8802 15.616L55.877 15.6128ZM41.0934 13.0208H50.3976C49.9071 10.9248 48.2944 9.83043 45.7166 9.83043C43.1389 9.83043 41.6096 10.896 41.0934 13.0208Z" fill="#190066"/>
</svg>
