<svg viewBox="0 0 221 110" fill="none" xmlns="http://www.w3.org/2000/svg">
  <path
    d="M125.411 84.3652V108.255H113.074V91.7037L99.015 93.3384C95.927 93.6945 94.5683 94.7044 94.5683 96.5644C94.5683 99.2891 97.1477 100.437 102.677 100.437C106.048 100.437 109.783 99.9357 113.081 99.0711L106.695 108.11C104.116 108.684 101.602 108.967 98.9496 108.967C87.7603 108.967 81.3737 104.52 81.3737 96.6298C81.3737 89.6692 86.3944 86.0146 97.8016 84.7213L112.871 82.9702C112.057 78.589 108.751 76.6854 102.176 76.6854C96.007 76.6854 89.1917 78.262 83.0957 81.2046L85.0357 70.5167C90.7029 68.1481 97.1622 66.9275 103.687 66.9275C118.037 66.9275 125.426 72.8854 125.426 84.358L125.411 84.3652ZM14.4271 54.4522L0.941895 108.255H14.4271L21.1189 81.2192L32.7223 95.1258H46.7815L58.3849 81.2192L65.0767 108.255H78.5619L65.0767 54.4449L39.7483 84.5251L14.4199 54.4449L14.4271 54.4522ZM65.0767 0.642029L39.7483 30.7222L14.4271 0.642029L0.941895 54.4522H14.4271L21.1189 27.4163L32.7223 41.323H46.7815L58.3849 27.4163L65.0767 54.4522H78.5619L65.0767 0.642029ZM157.838 83.8639L146.933 82.2872C144.208 81.8586 143.133 80.9939 143.133 79.4899C143.133 77.0486 145.785 75.9733 151.241 75.9733C157.555 75.9733 163.222 77.2666 169.18 80.0639L167.676 69.5213C162.866 67.7993 157.344 66.942 151.604 66.942C138.192 66.942 130.868 71.6066 130.868 79.9985C130.868 86.5304 134.886 90.1851 143.423 91.4784L154.474 93.1277C157.272 93.5564 158.42 94.6317 158.42 96.3537C158.42 98.795 155.84 99.943 150.602 99.943C143.714 99.943 136.252 98.2937 130.156 95.3511L131.377 105.894C136.615 107.834 143.43 108.982 149.817 108.982C163.593 108.982 170.764 104.172 170.764 95.6344C170.764 88.8192 166.746 85.1572 157.853 83.8712L157.838 83.8639ZM175.56 59.2548V108.255H187.897V59.2548H175.56ZM202.312 86.2325L219.467 67.6468H204.114L187.897 86.8719L205.189 108.248H220.76L202.312 86.2253V86.2325ZM173.838 42.827C173.838 50.7176 180.224 55.1642 191.413 55.1642C194.065 55.1642 196.579 54.8736 199.159 54.3068L205.545 45.2683C202.247 46.1256 198.512 46.6342 195.141 46.6342C189.619 46.6342 187.032 45.4862 187.032 42.7616C187.032 40.8943 188.398 39.8916 191.479 39.5356L205.538 37.9008V54.4522H217.875V30.5624C217.875 19.0825 210.486 13.1319 196.136 13.1319C189.604 13.1319 183.152 14.3525 177.485 16.7211L175.545 27.409C181.641 24.4664 188.456 22.8898 194.625 22.8898C201.2 22.8898 204.506 24.7934 205.32 29.1746L190.251 30.9257C178.844 32.219 173.823 35.8736 173.823 42.8342L173.838 42.827ZM139.333 40.2476C139.333 50.1508 145.073 55.1715 156.407 55.1715C160.926 55.1715 164.661 54.4522 168.243 52.8028L169.82 41.9696C166.376 44.0476 162.859 45.1229 159.342 45.1229C154.031 45.1229 151.663 42.9723 151.663 38.1624V23.8125H170.386V13.8439H151.663V5.3793L128.201 17.7892V23.8125H139.318V40.2404L139.333 40.2476ZM127.206 35.7283V38.1696H93.8635C95.3676 43.1394 99.836 45.4136 107.77 45.4136C114.084 45.4136 119.969 44.1203 125.201 41.6136L123.697 52.0908C118.887 54.0961 112.791 55.1787 106.55 55.1787C89.9764 55.1787 80.9378 47.8621 80.9378 34.3042C80.9378 20.7464 90.1217 13.1391 104.326 13.1391C118.531 13.1391 127.213 21.393 127.213 35.7356L127.206 35.7283ZM93.7037 29.8431H114.789C113.677 25.084 110.023 22.5991 104.181 22.5991C98.3392 22.5991 94.8735 25.0186 93.7037 29.8431Z"
    fill="black" />
</svg>